# xmcd
#
# Track frame offsets:
#	183
#	12405
#	21923
#	32853
#	45180
#	58380
#	70513
#	82008
#	94470
#	106465
#	117858
#	128633
#	141013
#	155033
#	168020
#	178578
#	188400
#	200545
#	211653
#	223710
#
# Disc length: 3140 seconds
#
# Revision: 1
# Processed by: cddbd v1.5PL3 Copyright (c) Steve Scherf et al.
# Submitted via: audiograbber 1.83.01
#
DISCID=140c4214
DTITLE=Guy Mitchell - Singin' the blues
DYEAR=1900
DGENRE=Blues
TTITLE0=My truly truly fair
TTITLE1=Knee deep in the blues
TTITLE2=Cloud Lucky seven
TTITLE3=Music Music Music
TTITLE4=Whe wears red feathers
TTITLE5=The roving kind
TTITLE6=Pretty little black-eyed Susie
TTITLE7=Pittsbourgh Pensylvania
TTITLE8=Chica Boom
TTITLE9=Heartaches by the number
TTITLE10=Singing the blues
TTITLE11=Side by side
TTITLE12=Sparrow in the treetops
TTITLE13=My shoes keep walking back to you
TTITLE14=Sippin' Soda
TTITLE15=Rock-a billy
TTITLE16=The cuff of my shirt
TTITLE17=Call Rosie on the Phone
TTITLE18=My heart cries for you
TTITLE19=Feel up
EXTD=
EXTT0=
EXTT1=
EXTT2=
EXTT3=
EXTT4=
EXTT5=
EXTT6=
EXTT7=
EXTT8=
EXTT9=
EXTT10=
EXTT11=
EXTT12=
EXTT13=
EXTT14=
EXTT15=
EXTT16=
EXTT17=
EXTT18=
EXTT19=
PLAYORDER=
